<svg width="56" height="72" viewBox="0 0 56 72" fill="none" xmlns="http://www.w3.org/2000/svg">
<path fill-rule="evenodd" clip-rule="evenodd" d="M23.5322 46.8316C36.3013 46.8316 46.6528 36.4842 46.6528 23.7202C46.6528 10.9561 36.3013 0.608765 23.5322 0.608765C10.7631 0.608765 0.411621 10.9561 0.411621 23.7202C0.411621 36.4842 10.7631 46.8316 23.5322 46.8316Z" fill="#EFC638" fill-opacity="0.7"/>
<path fill-rule="evenodd"  transform ="translate(15.5 12.5)" clip-rule="evenodd" d="M4.44136 2.91599H12.1548V6.50825H11.1744L8.58886 3.75588C8.51174 3.67467 8.40067 3.62225 8.2834 3.63372C8.16695 3.63803 8.05894 3.69046 7.98952 3.77743L7.08242 4.90392L6.71681 4.48508C6.64819 4.40679 6.54788 4.35862 6.43912 4.35291C6.32805 4.34499 6.22473 4.38308 6.14755 4.45421L4.44136 6.01107V2.91599ZM8.2981 1.71832L8.68373 2.19681H7.91241L8.2981 1.71832ZM8.48241 6.50825L7.58457 5.4787L8.32199 4.56338L10.1493 6.50825H8.48241ZM5.00061 6.50825L6.38515 5.24447L7.48819 6.50825H5.00061ZM3.70012 7.00398C3.70938 7.02408 3.72476 7.03987 3.7379 7.05787C3.75178 7.07796 3.76104 7.10022 3.7803 7.11822C3.7803 7.11962 3.78186 7.11962 3.78262 7.12037C3.8212 7.15626 3.86904 7.18288 3.92146 7.20082C3.96392 7.21591 4.00789 7.22523 4.0526 7.22598C4.05417 7.22598 4.05492 7.22668 4.05567 7.22668H12.5405C12.7534 7.22668 12.9262 7.06573 12.9262 6.86744V2.55675C12.9262 2.35846 12.7534 2.19756 12.5405 2.19756H9.64793L8.60662 0.904357C8.46083 0.723308 8.13455 0.723308 7.98952 0.904357L6.94821 2.19756H4.05567C3.84278 2.19756 3.67004 2.35846 3.67004 2.55675V6.86098V6.86674V6.86744C3.67004 6.8696 3.67154 6.87105 3.67154 6.87321C3.67235 6.91777 3.6808 6.96228 3.70012 7.00398ZM15.7593 13.8925C14.6562 13.5425 13.7006 12.623 13.1252 11.3843C13.4661 11.1968 13.6975 10.8541 13.6975 10.4597C13.6975 9.86553 13.1784 9.38203 12.5405 9.38203C11.9025 9.38203 11.3835 9.86553 11.3835 10.4597C11.3835 10.852 11.6118 11.1925 11.9488 11.3807C11.1906 13.0166 9.80835 14.0512 8.29729 14.0512C6.78623 14.0512 5.40325 13.0174 4.64575 11.3815C4.9836 11.1932 5.21269 10.852 5.21269 10.4597C5.21269 9.86553 4.69359 9.38203 4.05567 9.38203C3.41781 9.38203 2.89866 9.86553 2.89866 10.4597C2.89866 10.8548 3.13087 11.1975 3.47254 11.385C2.8979 12.6208 1.94527 13.5397 0.845358 13.8903C0.644038 13.955 0.53684 14.159 0.605451 14.3465C0.660236 14.496 0.809896 14.5893 0.970316 14.5893C1.01122 14.5893 1.05362 14.5829 1.09527 14.5706C2.10957 14.2466 3.00741 13.5239 3.67004 12.5525V17.6442C3.67004 17.8425 3.84278 18.0034 4.05567 18.0034C4.26856 18.0034 4.44136 17.8425 4.44136 17.6442V12.5683C5.37779 13.9406 6.78009 14.7704 8.2981 14.7704C9.8161 14.7704 11.2184 13.9406 12.1548 12.5676V17.6442C12.1548 17.8425 12.3276 18.0034 12.5405 18.0034C12.7534 18.0034 12.9262 17.8425 12.9262 17.6442V12.5511C13.591 13.5261 14.4919 14.2495 15.5109 14.5728C15.5518 14.5865 15.5942 14.5922 15.6351 14.5922C15.7956 14.5922 15.9452 14.4981 15.9999 14.3479C16.0686 14.1604 15.9606 13.9564 15.7593 13.8925ZM10.6121 4.7121C11.0379 4.7121 11.3835 4.39025 11.3835 3.99367C11.3835 3.59708 11.0379 3.27524 10.6121 3.27524C10.1863 3.27524 9.84075 3.59708 9.84075 3.99367C9.84075 4.39025 10.1863 4.7121 10.6121 4.7121Z" fill="black"/>
</svg>
