<svg width="56" height="72" viewBox="0 0 56 72" fill="none" xmlns="http://www.w3.org/2000/svg">
<path fill-rule="evenodd" clip-rule="evenodd" d="M23.5322 46.8316C36.3013 46.8316 46.6528 36.4842 46.6528 23.7202C46.6528 10.9561 36.3013 0.608765 23.5322 0.608765C10.7631 0.608765 0.411621 10.9561 0.411621 23.7202C0.411621 36.4842 10.7631 46.8316 23.5322 46.8316Z" fill="#EFC638" fill-opacity="0.7"/>
<path fill-rule="evenodd" transform ="translate(15.5 12.5)" clip-rule="evenodd" d="M7.76431 5.18767C7.74475 5.20686 7.74475 5.22605 7.72518 5.24524C7.70562 5.22605 7.70562 5.20686 7.68605 5.18767C6.82518 3.72908 4.71215 4.1705 4.71215 5.95535C4.71215 7.58666 7.72518 9.52505 7.72518 9.52505C7.72518 9.52505 10.7382 7.58666 10.7382 5.95535C10.7382 4.1705 8.62518 3.72908 7.76431 5.18767ZM7.72518 1.21494C4.24259 1.21494 1.42521 3.59474 1.42521 6.53111C1.42521 7.75939 1.9339 8.94929 2.85346 9.90889C3.2839 10.3503 2.8339 10.9836 2.09042 12.02C1.95347 12.2311 1.75782 12.4806 1.62086 12.7109C2.32521 12.519 3.42085 12.116 4.08607 11.8857C4.98606 11.5594 5.14258 11.5018 5.2991 11.5018H5.37737L5.45563 11.521C6.17954 11.7513 6.94258 11.8857 7.72518 11.8857C11.2078 11.8857 14.0252 9.50586 14.0252 6.56949C14.0252 3.63312 11.2078 1.21494 7.72518 1.21494ZM1.05347 13.7473C0.877386 13.7473 0.74043 13.7089 0.623039 13.6321C0.486083 13.5362 0.407823 13.421 0.368692 13.2675C0.290432 12.8644 0.603474 12.4038 1.28825 11.4634C1.50347 11.1564 1.85564 10.6574 1.9926 10.4079C0.994776 9.31394 0.446953 7.95131 0.446953 6.5311C0.446953 3.07656 3.71433 0.255341 7.72518 0.255341C11.736 0.255341 15.0034 3.07656 15.0034 6.5311C15.0034 9.98565 11.736 12.8069 7.72518 12.8069C6.88388 12.8069 6.06214 12.6917 5.27954 12.4422C5.10345 12.4998 4.75128 12.6341 4.41867 12.7493C2.93172 13.3059 1.64043 13.7473 1.05347 13.7473Z" fill="black"/>
</svg>
