<svg width="16" height="13" viewBox="0 0 16 13" fill="none" xmlns="http://www.w3.org/2000/svg">
<path fill-rule="evenodd" clip-rule="evenodd" d="M14.6401 11.0494H1.18349C0.852588 11.0494 0.584717 11.3023 0.584717 11.6147C0.584717 11.9271 0.852588 12.1949 1.18349 12.1949H14.6243C14.9552 12.1949 15.2231 11.942 15.2231 11.6296C15.2231 11.3172 14.971 11.0494 14.6401 11.0494Z" fill="black"/>
<path fill-rule="evenodd" clip-rule="evenodd" d="M1.79813 9.05579C1.87692 5.94639 4.58714 3.4321 7.9119 3.4321C11.2367 3.4321 13.9469 5.94639 14.0257 9.05579H1.79813ZM6.61982 2.34605C6.61982 1.70631 7.17132 1.20048 7.84888 1.20048C8.52643 1.20048 9.07793 1.72119 9.07793 2.34605V2.36092C8.85733 2.33117 8.62098 2.30141 8.38462 2.28654H7.48646C7.20283 2.30141 6.9192 2.33117 6.65133 2.39068V2.34605H6.61982ZM15.2232 8.89213V8.78799C15.2232 8.7136 15.2075 8.63922 15.2075 8.57971C15.2075 8.53507 15.2075 8.50532 15.1917 8.46069C15.1917 8.40118 15.176 8.32679 15.1602 8.26728C15.1602 8.22265 15.1444 8.19289 15.1444 8.14826C15.1287 8.07387 15.1129 7.99949 15.1129 7.93998C15.1129 7.91022 15.0972 7.88047 15.0972 7.85071C15.0814 7.74657 15.0499 7.6573 15.0341 7.55316C15.0341 7.52341 15.0184 7.50853 15.0184 7.47877C15.0026 7.40439 14.9711 7.33 14.9553 7.27049C14.9396 7.22586 14.9238 7.1961 14.9238 7.15147C14.9081 7.09196 14.8923 7.03245 14.8608 6.97294C14.845 6.92831 14.8293 6.89855 14.8135 6.85392C14.7978 6.79441 14.7663 6.74978 14.7505 6.69027C14.7347 6.64564 14.719 6.61588 14.7032 6.57125C14.6717 6.51174 14.656 6.45223 14.6244 6.4076C14.6087 6.37784 14.5929 6.33321 14.5772 6.30345C14.5299 6.21419 14.4984 6.1398 14.4511 6.05054C14.4354 6.0059 14.4038 5.96127 14.3723 5.91664C14.3408 5.87201 14.3251 5.82737 14.2935 5.78274C14.262 5.73811 14.2305 5.69348 14.2148 5.64884C14.1832 5.60421 14.1675 5.57446 14.136 5.52982C14.1045 5.48519 14.0729 5.44056 14.0414 5.39593C14.0257 5.36617 13.9942 5.33642 13.9784 5.29179C13.9469 5.24715 13.9154 5.18764 13.8681 5.14301C13.8523 5.12813 13.8366 5.09838 13.8208 5.0835C13.7263 4.96448 13.6317 4.86034 13.5372 4.74132L13.5057 4.71156C13.4584 4.65205 13.4111 4.60742 13.3639 4.56279C13.3481 4.54791 13.3324 4.51816 13.3166 4.50328C13.2693 4.45865 13.2221 4.39914 13.1748 4.3545C13.159 4.33963 13.1433 4.32475 13.1275 4.30987C13.0802 4.26524 13.0172 4.20573 12.9699 4.1611C12.9542 4.14622 12.9542 4.14622 12.9384 4.13134C12.6863 3.90818 12.4027 3.68502 12.1033 3.49161C12.0875 3.49161 12.0875 3.47673 12.0718 3.47673C11.993 3.4321 11.93 3.38747 11.8512 3.34284L11.8354 3.32796C11.4415 3.08992 11.0318 2.89651 10.6064 2.73286H10.5906C10.5118 2.7031 10.4173 2.67335 10.3385 2.64359V2.46507C10.3385 1.21536 9.26702 0.20369 7.92766 0.20369C6.60406 0.20369 5.53257 1.21536 5.53257 2.46507V2.62872C5.43803 2.65847 5.35925 2.68823 5.2647 2.71798H5.24895C4.80774 2.88163 4.39806 3.07504 4.00413 3.31308C4.00413 3.31308 3.98837 3.31308 3.98837 3.32796C3.90959 3.37259 3.84656 3.41722 3.76777 3.46186L3.75202 3.47673C3.45263 3.67014 3.18476 3.87843 2.91689 4.11646C2.90113 4.13134 2.90113 4.13134 2.88537 4.14622C2.82234 4.19085 2.77507 4.25036 2.7278 4.29499C2.71204 4.30987 2.69629 4.32475 2.68053 4.33963C2.63326 4.38426 2.58599 4.44377 2.52296 4.4884C2.5072 4.50328 2.49144 4.51816 2.47569 4.54791C2.42842 4.60742 2.38114 4.65205 2.33387 4.71156L2.31812 4.72644C2.22357 4.84546 2.11327 4.96448 2.01873 5.0835C2.00297 5.09838 1.98722 5.12813 1.97146 5.14301C1.93994 5.18764 1.89267 5.24715 1.86116 5.29179C1.8454 5.32154 1.81389 5.35129 1.79813 5.38105C1.76662 5.42568 1.7351 5.47031 1.70359 5.51495C1.67207 5.5447 1.65631 5.58933 1.6248 5.61909C1.59329 5.66372 1.56177 5.70835 1.54601 5.75299C1.5145 5.79762 1.49874 5.84225 1.46723 5.88688C1.43571 5.93152 1.41996 5.97615 1.38844 6.02078C1.34117 6.09517 1.2939 6.18443 1.26239 6.2737C1.24663 6.30345 1.23087 6.34809 1.21511 6.37784C1.1836 6.43735 1.16784 6.48198 1.13633 6.54149C1.12057 6.58613 1.10481 6.61588 1.08906 6.66051C1.0733 6.72002 1.04179 6.76466 1.02603 6.82416C1.01027 6.8688 0.994515 6.89855 0.978758 6.94318C0.963 7.00269 0.931486 7.0622 0.915729 7.12171C0.899972 7.16635 0.884215 7.1961 0.884215 7.24073C0.868457 7.31512 0.836943 7.38951 0.821186 7.44902C0.821186 7.47877 0.805429 7.49365 0.805429 7.52341C0.773915 7.61267 0.758157 7.71681 0.7424 7.82096C0.7424 7.85071 0.726643 7.88047 0.726643 7.91022C0.710886 7.98461 0.695129 8.04412 0.695129 8.11851C0.695129 8.14826 0.679372 8.19289 0.679372 8.23752C0.663615 8.29704 0.663615 8.37142 0.647857 8.43093C0.647857 8.47556 0.6321 8.50532 0.6321 8.54995C0.6321 8.62434 0.616343 8.69873 0.616343 8.75824V8.86238C0.616343 8.96652 0.600586 9.07066 0.600586 9.17481V9.59137C0.600586 9.9038 0.868457 10.1567 1.19936 10.1567H14.6402C14.9711 10.1567 15.239 9.9038 15.239 9.59137V9.17481C15.239 9.10042 15.239 8.99628 15.2232 8.89213Z" fill="black"/>
</svg>
