<svg width="18" height="18" viewBox="0 0 18 18" fill="none" xmlns="http://www.w3.org/2000/svg">
<g style="mix-blend-mode:multiply">
<mask id="mask0_0_1875" style="mask-type:alpha" maskUnits="userSpaceOnUse" x="0" y="0" width="17" height="17">
<path fill-rule="evenodd" clip-rule="evenodd" d="M16.8875 0.367889V16.9509H0.124695V0.367889H16.8875V0.367889Z" fill="white"/>
</mask>
<g mask="url(#mask0_0_1875)">
<path fill-rule="evenodd" clip-rule="evenodd" d="M12.536 1.3874C8.48289 -0.810344 3.37721 0.663198 1.15528 4.67252C-1.06665 8.6822 0.423751 13.7329 4.47705 15.9312C8.52946 18.1294 13.6351 16.6552 15.8564 12.6459C18.0792 8.63623 16.5889 3.58499 12.536 1.3874Z" fill="black"/>
</g>
<path fill-rule="evenodd" clip-rule="evenodd" d="M14.7827 12.0637C14.7579 12.1086 14.7306 12.1517 14.7051 12.1963L13.416 11.4829C13.3359 11.4383 13.2463 11.4224 13.1595 11.4322C13.0731 11.4425 12.9894 11.479 12.9228 11.5406L10.4817 13.7759C10.3467 13.8989 10.3082 14.0938 10.3848 14.2579L10.8878 15.3362C9.74694 15.7343 8.50798 15.8456 7.29002 15.6378L7.50018 14.5879C7.5359 14.4106 7.45094 14.2304 7.29169 14.1422L4.38883 12.5356C4.30869 12.4912 4.21937 12.4751 4.13252 12.4852C4.04567 12.4955 3.96254 12.532 3.89617 12.5933L3.1088 13.3145C2.34375 12.4463 1.81269 11.4126 1.54553 10.3145L2.7494 10.1723C2.93127 10.152 3.07847 10.0161 3.1142 9.83902L3.76107 6.61142C3.79696 6.43399 3.7121 6.25339 3.55254 6.1655L2.15616 5.3929C2.18047 5.34714 2.20263 5.30055 2.22808 5.25495C2.84112 4.14866 3.70995 3.27045 4.72141 2.64854L5.15457 3.55614C5.23252 3.72015 5.40821 3.81519 5.59008 3.79229L8.88901 3.37575C9.07089 3.35284 9.2162 3.21686 9.25077 3.03891L9.51677 1.64844C10.3464 1.76519 11.1689 2.02787 11.9474 2.44991C12.5608 2.78255 13.1044 3.19266 13.5751 3.65916L12.4043 4.74979C12.2708 4.87416 12.2332 5.06922 12.3117 5.23272L13.7318 8.20841C13.8098 8.37226 13.9858 8.46694 14.1677 8.44456L15.6518 8.25717C15.7271 9.53804 15.4527 10.8551 14.7827 12.0637Z" fill="white"/>
<path fill-rule="evenodd" clip-rule="evenodd" d="M10.1273 6.00217C10.0882 5.92024 10.0249 5.85526 9.94864 5.81396C9.87169 5.77219 9.78269 5.75395 9.69196 5.76587L6.39235 6.18179C6.21068 6.20547 6.06417 6.34062 6.03064 6.51889L5.4109 9.7513C5.37669 9.92941 5.46234 10.1093 5.62331 10.1964L8.53953 11.7781C8.70045 11.865 8.89877 11.8401 9.03251 11.7159L11.4543 9.46058C11.5874 9.33621 11.6251 9.14136 11.5473 8.97786L10.1273 6.00217Z" fill="black"/>
</g>
</svg>
