<svg width="19" height="19" viewBox="0 0 19 19" fill="none" xmlns="http://www.w3.org/2000/svg">
<g style="mix-blend-mode:multiply">
<mask id="mask0_0_2085" style="mask-type:alpha" maskUnits="userSpaceOnUse" x="0" y="0" width="19" height="18">
<path fill-rule="evenodd" clip-rule="evenodd" d="M18.0645 0.579407V17.6891H0.1875V0.579407H18.0645V0.579407Z" fill="white"/>
</mask>
<g mask="url(#mask0_0_2085)">
<path fill-rule="evenodd" clip-rule="evenodd" d="M13.4237 1.6313C9.10124 -0.636247 3.6562 0.884094 1.28659 5.02075C-1.08303 9.15777 0.506433 14.3689 4.82914 16.637C9.1509 18.9051 14.5959 17.384 16.9648 13.2474C19.3353 9.11035 17.746 3.89868 13.4237 1.6313Z" fill="black"/>
</g>
<path fill-rule="evenodd" clip-rule="evenodd" d="M15.8197 12.6466C15.7933 12.6929 15.7642 12.7374 15.737 12.7835L14.3622 12.0474C14.2768 12.0014 14.1813 11.9849 14.0887 11.995C13.9965 12.0057 13.9073 12.0433 13.8363 12.1069L11.2329 14.4132C11.0889 14.5401 11.0478 14.7412 11.1295 14.9105L11.666 16.023C10.4493 16.4338 9.12798 16.5487 7.82906 16.3343L8.05319 15.251C8.09129 15.0681 8.00068 14.8821 7.83085 14.7911L4.73505 13.1335C4.64957 13.0877 4.55432 13.0711 4.4617 13.0815C4.36908 13.0921 4.28042 13.1298 4.20964 13.1931L3.36993 13.9372C2.55403 13.0413 1.98767 11.9749 1.70276 10.8418L2.98664 10.6952C3.18061 10.6742 3.33759 10.534 3.37569 10.3513L4.06556 7.02118C4.10383 6.83811 4.01333 6.65178 3.84316 6.5611L2.35397 5.76395C2.3799 5.71674 2.40353 5.66868 2.43068 5.62163C3.08446 4.48021 4.01104 3.5741 5.08973 2.93244L5.55168 3.86886C5.6348 4.03809 5.82218 4.13615 6.01614 4.11251L9.53434 3.68274C9.7283 3.65911 9.88327 3.51881 9.92014 3.33521L10.2038 1.90057C11.0886 2.02104 11.9658 2.29206 12.796 2.7275C13.4501 3.0707 14.0299 3.49384 14.5319 3.97516L13.2833 5.10043C13.1409 5.22875 13.1008 5.43 13.1845 5.59869L14.699 8.66888C14.7822 8.83795 14.9699 8.93563 15.1638 8.91253L16.7467 8.7192C16.8269 10.0407 16.5343 11.3996 15.8197 12.6466Z" fill="white"/>
<path fill-rule="evenodd" clip-rule="evenodd" d="M10.855 6.39259C10.8133 6.30806 10.7458 6.24101 10.6644 6.1984C10.5824 6.1553 10.4875 6.13648 10.3907 6.14878L6.87177 6.57791C6.67804 6.60234 6.52178 6.74179 6.48603 6.92571L5.82509 10.2608C5.78861 10.4446 5.87995 10.6302 6.05162 10.72L9.16167 12.3519C9.33329 12.4416 9.54479 12.4159 9.68742 12.2878L12.2702 9.96083C12.4121 9.83251 12.4523 9.63147 12.3694 9.46279L10.855 6.39259Z" fill="black"/>
</g>
</svg>
