<svg width="17" height="16" viewBox="0 0 17 16" fill="none" xmlns="http://www.w3.org/2000/svg">
<path fill-rule="evenodd" clip-rule="evenodd" d="M15.9919 -2.28882e-05L5.72205e-06 2.88088L0.700507 6.65598L16.6926 3.77513L15.9919 -2.28882e-05ZM11.8696 1.76023L13.65 1.43963L12.1526 3.57508L10.3722 3.89573L11.8696 1.76023ZM15.241 1.51863L15.5105 2.97023L14.037 3.23573L15.241 1.51863ZM8.20456 2.42053L9.9851 2.09978L8.48773 4.23523L6.70734 4.55603L8.20456 2.42053ZM4.53977 3.08088L6.3202 2.76008L4.82278 4.89573L3.0424 5.21638L4.53977 3.08088ZM1.18199 3.68553L2.65546 3.42018L1.4514 5.13718L1.18199 3.68553Z" fill="black"/>
<path fill-rule="evenodd" clip-rule="evenodd" d="M0.70035 16H16.9576V6.656H0.70035V16ZM2.06751 11.8286H15.6029V7.9908H2.06751V11.8286Z" fill="black"/>
</svg>
