<svg width="56" height="72" viewBox="0 0 56 72" fill="none" xmlns="http://www.w3.org/2000/svg">
<path fill-rule="evenodd" clip-rule="evenodd" d="M23.5322 46.8316C36.3013 46.8316 46.6528 36.4842 46.6528 23.7202C46.6528 10.9561 36.3013 0.608765 23.5322 0.608765C10.7631 0.608765 0.411621 10.9561 0.411621 23.7202C0.411621 36.4842 10.7631 46.8316 23.5322 46.8316Z" fill="#EFC638" fill-opacity="0.7"/>
<path fill-rule="evenodd" transform ="translate(15.5 12.5)" clip-rule="evenodd" d="M12.9354 0.729507L0.584717 2.88928L1.12572 5.71941L13.4766 3.55968L12.9354 0.729507ZM9.7517 2.04914L11.1267 1.80879L9.97027 3.40971L8.59527 3.65009L9.7517 2.04914ZM12.3554 1.86802L12.5636 2.95626L11.4256 3.1553L12.3554 1.86802ZM6.92116 2.54416L8.29628 2.3037L7.13985 3.90461L5.76484 4.14511L6.92116 2.54416ZM4.09081 3.03921L5.46585 2.79871L4.30938 4.39978L2.93438 4.64016L4.09081 3.03921ZM1.49757 3.49251L2.63554 3.29358L1.70564 4.58079L1.49757 3.49251Z" fill="black"/>
<path fill-rule="evenodd" transform ="translate(15.5 12.5)" clip-rule="evenodd" d="M1.12549 12.7245H13.6811V5.71942H1.12549V12.7245ZM2.18135 9.59724H12.6348V6.7201H2.18135V9.59724Z" fill="black"/>
</svg>
