<svg width="15" height="15" viewBox="0 0 15 15" fill="none" xmlns="http://www.w3.org/2000/svg">
<mask id="mask0_0_1404" style="mask-type:alpha" maskUnits="userSpaceOnUse" x="0" y="0" width="15" height="15">
<path fill-rule="evenodd" clip-rule="evenodd" d="M0.812256 0.992447V14.4868H14.69V0.992447L0.812256 0.992447V0.992447Z" fill="white"/>
</mask>
<g mask="url(#mask0_0_1404)">
<path fill-rule="evenodd" clip-rule="evenodd" d="M11.9236 11.7903C11.0271 11.7903 10.2979 11.103 10.2979 10.2581C10.2979 9.41315 11.0271 8.72584 11.9236 8.72584C12.8202 8.72584 13.5494 9.41315 13.5494 10.2581C13.5494 11.103 12.8202 11.7903 11.9236 11.7903ZM6.34513 3.62228L13.5494 2.19256V3.57781L6.34513 5.00731V3.62228ZM3.57872 13.4117C2.68237 13.4117 1.95289 12.7244 1.95289 11.8795C1.95289 11.0346 2.68219 10.3473 3.57872 10.3473C4.47525 10.3473 5.20449 11.0346 5.20449 11.8795C5.20449 12.7244 4.47507 13.4117 3.57872 13.4117ZM14.69 1.5301C14.69 1.368 14.6125 1.21489 14.4792 1.11267C14.3456 1.01068 14.1701 0.970363 14.0023 1.00416L5.65736 2.66002C5.39347 2.71237 5.20449 2.93188 5.20449 3.18596V5.6696V9.77423C4.74746 9.4597 4.18665 9.27191 3.57872 9.27191C2.0533 9.27191 0.812256 10.4416 0.812256 11.8793C0.812256 13.3171 2.0533 14.4868 3.57872 14.4868C5.10415 14.4868 6.34513 13.3171 6.34513 11.8793V6.10614L13.5494 4.67641V8.15312C13.0924 7.83858 12.5316 7.65056 11.9236 7.65056C10.3984 7.65056 9.15722 8.8203 9.15722 10.2581C9.15722 11.6958 10.3982 12.8655 11.9236 12.8655C13.4491 12.8655 14.69 11.6957 14.69 10.2581V4.04848C14.69 4.04308 14.6885 4.03791 14.6884 4.03251C14.6885 4.02621 14.69 4.02025 14.69 4.01395V1.5301Z" fill="black"/>
</g>
</svg>
