<svg width="56" height="72" viewBox="0 0 56 72" fill="none" xmlns="http://www.w3.org/2000/svg">
<path fill-rule="evenodd" clip-rule="evenodd" d="M23.5322 46.8316C36.3013 46.8316 46.6528 36.4842 46.6528 23.7202C46.6528 10.9561 36.3013 0.608765 23.5322 0.608765C10.7631 0.608765 0.411621 10.9561 0.411621 23.7202C0.411621 36.4842 10.7631 46.8316 23.5322 46.8316Z" fill="#EFC638" fill-opacity="0.7"/>
<mask id="mask0_0_2069" style="mask-type:alpha" maskUnits="userSpaceOnUse" x="0" y="0" width="21" height="21">
<path fill-rule="evenodd" clip-rule="evenodd" d="M0 0.575623V20.0855H20.1397V0.575623L0 0.575623L0 0.575623Z" fill="white"/>
</mask>
<g mask="url(#mask0_0_2069)" transform ="translate(11.5 12.5)" >
<path fill-rule="evenodd"  clip-rule="evenodd" d="M16.125 16.187C14.824 16.187 13.7657 15.1933 13.7657 13.9717C13.7657 12.7501 14.824 11.7564 16.125 11.7564C17.4261 11.7564 18.4844 12.7501 18.4844 13.9717C18.4844 15.1933 17.4261 16.187 16.125 16.187ZM8.02941 4.37779L18.4844 2.31072V4.31349L8.02941 6.38024V4.37779ZM4.01475 18.5312C2.71395 18.5312 1.65532 17.5375 1.65532 16.316C1.65532 15.0944 2.71369 14.1007 4.01475 14.1007C5.31581 14.1007 6.37409 15.0944 6.37409 16.316C6.37409 17.5375 5.31555 18.5312 4.01475 18.5312ZM20.1397 1.35295C20.1397 1.11859 20.0272 0.89723 19.8338 0.749442C19.6398 0.60198 19.3851 0.543694 19.1416 0.59255L7.03131 2.98657C6.64834 3.06226 6.37409 3.37962 6.37409 3.74697V7.33777V13.2722C5.71085 12.8174 4.89698 12.5459 4.01475 12.5459C1.80102 12.5459 0 14.237 0 16.3157C0 18.3944 1.80102 20.0855 4.01475 20.0855C6.22848 20.0855 8.02941 18.3944 8.02941 16.3157V7.96891L18.4844 5.90184V10.9284C17.8212 10.4737 17.0074 10.2018 16.125 10.2018C13.9116 10.2018 12.1104 11.893 12.1104 13.9717C12.1104 16.0504 13.9113 17.7415 16.125 17.7415C18.3388 17.7415 20.1397 16.0501 20.1397 13.9717V4.99398C20.1397 4.98618 20.1375 4.9787 20.1373 4.97089C20.1375 4.96179 20.1397 4.95317 20.1397 4.94407V1.35295Z" fill="black"/>
</g>
</svg>
