<svg width="19" height="19" viewBox="0 0 19 19" fill="none" xmlns="http://www.w3.org/2000/svg">
<path fill-rule="evenodd" clip-rule="evenodd" d="M16.2554 9.36694C15.4356 9.36694 14.763 8.6946 14.763 7.8752C14.763 7.0558 15.4356 6.38346 16.2554 6.38346C17.0751 6.38346 17.7477 7.0558 17.7477 7.8752C17.7477 8.71561 17.0751 9.36694 16.2554 9.36694ZM16.2554 13.0858C15.4356 13.0858 14.763 12.4134 14.763 11.594C14.763 10.7746 15.4356 10.1023 16.2554 10.1023C17.0751 10.1023 17.7477 10.7746 17.7477 11.594C17.7477 12.4344 17.0751 13.0858 16.2554 13.0858ZM14.0274 15.3339C14.0274 16.1533 13.3548 16.8256 12.535 16.8256H3.60209C2.78236 16.8256 2.10976 16.1533 2.10976 15.3339V7.8752C2.10976 7.0558 2.78236 6.38346 3.60209 6.38346H12.535C13.3548 6.38346 14.0274 7.0558 14.0274 7.8752V15.3339ZM16.991 4.91274H10.6644L13.1656 1.90826C13.2076 1.90826 13.2287 1.92927 13.2707 1.92927C13.6911 1.92927 14.0064 1.5931 14.0064 1.1939C14.0064 0.773697 13.6701 0.458542 13.2707 0.458542C12.8503 0.458542 12.535 0.794708 12.535 1.1939C12.535 1.27795 12.5561 1.36199 12.5771 1.44603L9.69751 4.91274H9.42427L6.52369 1.44603C6.54471 1.36199 6.56573 1.27795 6.56573 1.1939C6.56573 0.773697 6.22943 0.458542 5.83007 0.458542C5.4097 0.458542 5.09442 0.794708 5.09442 1.1939C5.09442 1.61411 5.43072 1.92927 5.83007 1.92927C5.87211 1.92927 5.91415 1.90826 5.95618 1.90826L8.45741 4.91274H2.10976C1.29003 4.91274 0.617432 5.58507 0.617432 6.40447V16.8256C0.617432 17.645 1.29003 18.3174 2.10976 18.3174H16.991C17.8107 18.3174 18.4833 17.645 18.4833 16.8256V6.40447C18.4833 5.58507 17.8318 4.91274 16.991 4.91274Z" fill="black"/>
</svg>
