<svg width="56" height="72" viewBox="0 0 56 72" fill="none" xmlns="http://www.w3.org/2000/svg">
<path fill-rule="evenodd" clip-rule="evenodd" d="M23.5322 46.8316C36.3013 46.8316 46.6528 36.4842 46.6528 23.7202C46.6528 10.9561 36.3013 0.608765 23.5322 0.608765C10.7631 0.608765 0.411621 10.9561 0.411621 23.7202C0.411621 36.4842 10.7631 46.8316 23.5322 46.8316Z" fill="#EFC638" fill-opacity="0.7"/>
<path fill-rule="evenodd" transform ="translate(15.5 12.5)" clip-rule="evenodd" d="M11.8489 7.07425C11.2465 7.07425 10.7522 6.59445 10.7522 6.0097C10.7522 5.42494 11.2465 4.94514 11.8489 4.94514C12.4513 4.94514 12.9455 5.42494 12.9455 6.0097C12.9455 6.60944 12.4513 7.07425 11.8489 7.07425ZM11.8489 9.72813C11.2465 9.72813 10.7522 9.24834 10.7522 8.66358C10.7522 8.07883 11.2465 7.59903 11.8489 7.59903C12.4513 7.59903 12.9455 8.07883 12.9455 8.66358C12.9455 9.26333 12.4513 9.72813 11.8489 9.72813ZM10.2116 11.3325C10.2116 11.9172 9.7173 12.397 9.1149 12.397H2.55029C1.94789 12.397 1.45361 11.9172 1.45361 11.3325V6.0097C1.45361 5.42494 1.94789 4.94514 2.55029 4.94514H9.1149C9.7173 4.94514 10.2116 5.42494 10.2116 6.0097V11.3325ZM12.3895 3.89558H7.7402L9.57829 1.75148C9.60918 1.75148 9.62463 1.76648 9.65552 1.76648C9.96444 1.76648 10.1961 1.52658 10.1961 1.2417C10.1961 0.941824 9.949 0.716919 9.65552 0.716919C9.3466 0.716919 9.1149 0.956818 9.1149 1.2417C9.1149 1.30167 9.13035 1.36165 9.14579 1.42162L7.02967 3.89558H6.82887L4.6973 1.42162C4.71275 1.36165 4.7282 1.30167 4.7282 1.2417C4.7282 0.941824 4.48106 0.716919 4.18758 0.716919C3.87866 0.716919 3.64696 0.956818 3.64696 1.2417C3.64696 1.54157 3.8941 1.76648 4.18758 1.76648C4.21847 1.76648 4.24936 1.75148 4.28026 1.75148L6.11835 3.89558H1.45361C0.851211 3.89558 0.356934 4.37538 0.356934 4.96014V12.397C0.356934 12.9818 0.851211 13.4616 1.45361 13.4616H12.3895C12.9919 13.4616 13.4862 12.9818 13.4862 12.397V4.96014C13.4862 4.37538 13.0073 3.89558 12.3895 3.89558Z" fill="black"/>
</svg>
