<svg width="21" height="26" viewBox="0 0 21 26" fill="none" xmlns="http://www.w3.org/2000/svg">
<path fill-rule="evenodd" clip-rule="evenodd" d="M2.00919 8.05831C2.71556 8.16836 3.90524 8.09499 5.13209 7.03112C5.72693 6.48084 6.39612 6.5909 6.73072 6.66427C7.2512 6.81101 7.58579 7.14118 7.66015 7.39797C8.0691 8.90207 7.39991 9.41566 6.54483 10.076C5.80128 10.6263 4.72314 11.5067 5.46668 13.0475C5.87564 13.8546 5.98717 14.4415 5.83846 14.8084C5.68975 15.1019 5.31798 15.3954 4.61161 15.6522C2.82709 14.4782 1.67459 12.4605 1.67459 10.1861C1.67459 9.41566 1.78613 8.71864 2.00919 8.05831ZM8.36652 3.54602C9.59337 3.54602 10.7087 3.87619 11.7125 4.42647C11.0061 4.86669 10.5972 5.56371 10.5972 6.48084C10.5972 7.76483 11.1548 8.8287 11.6381 9.67246C11.8984 10.1861 12.233 10.773 12.1586 10.9931C11.7868 11.9836 11.824 12.9374 12.2701 13.5978C12.4932 13.8913 12.865 14.2214 13.497 14.4049C12.2701 15.8356 10.4485 16.7527 8.4037 16.7527C7.69733 16.7527 6.99096 16.6427 6.32176 16.4225C6.69354 16.1657 7.02813 15.7989 7.2512 15.3587C7.58579 14.5516 7.43709 13.6345 6.84225 12.3872C6.61918 11.9836 6.65636 11.8736 7.47426 11.2132C8.4037 10.5162 9.77926 9.45235 9.11007 6.99444C8.887 6.18736 8.14345 5.52703 7.17684 5.23354C6.0987 4.90338 5.02056 5.16017 4.16548 5.89388C3.64499 6.37079 3.12451 6.51753 2.75274 6.55421C3.90524 4.79332 5.98717 3.54602 8.36652 3.54602ZM15.0584 10.1494C15.0584 11.2132 14.7982 12.2037 14.3521 13.0842C14.0175 13.0842 13.6457 13.0108 13.4598 12.754C13.2739 12.4972 13.3111 12.0203 13.497 11.5067C13.8316 10.663 13.3855 9.8192 12.9022 8.97544C12.4932 8.24173 12.0471 7.39797 12.0471 6.48084C12.0471 6.04062 12.233 5.78382 12.6047 5.6004C12.7534 5.52703 12.865 5.49034 13.0137 5.45366C14.2777 6.66427 15.0584 8.3151 15.0584 10.1494ZM8.36652 18.2201C12.865 18.2201 16.5455 14.5883 16.5455 10.1494C16.5455 5.71045 12.865 2.07861 8.36652 2.07861C3.86806 2.07861 0.1875 5.71045 0.1875 10.1494C0.1875 14.5883 3.86806 18.2201 8.36652 18.2201Z" fill="black"/>
<mask id="mask0_0_2076" style="mask-type:alpha" maskUnits="userSpaceOnUse" x="0" y="0" width="20" height="25">
<path fill-rule="evenodd" clip-rule="evenodd" d="M0.596436 24.4566H19.1479V12.6004V0.744202H0.596436V24.4566V24.4566Z" fill="white"/>
</mask>
<g mask="url(#mask0_0_2076)">
<path fill-rule="evenodd" clip-rule="evenodd" d="M19.1479 10.1494C19.1479 6.26075 16.9917 2.70228 13.5713 0.831336C13.1996 0.64791 12.7534 0.757966 12.5675 1.12482C12.3817 1.49167 12.4932 1.93189 12.865 2.11532C15.8392 3.72947 17.698 6.81103 17.698 10.1494C17.698 15.212 13.5342 19.3207 8.40368 19.3207C5.94998 19.3207 3.6078 18.3669 1.86047 16.6794C1.56305 16.3859 1.07974 16.3859 0.8195 16.6794C0.522081 16.9728 0.522081 17.4498 0.8195 17.7065C2.67837 19.5041 5.0949 20.568 7.66013 20.7514V22.9892H5.42949C5.02054 22.9892 4.68595 23.3194 4.68595 23.7229C4.68595 24.1265 5.02054 24.4566 5.42949 24.4566H11.415C11.824 24.4566 12.1586 24.1265 12.1586 23.7229C12.1586 23.3194 11.824 22.9892 11.415 22.9892H9.14723V20.7514C14.7238 20.3846 19.1479 15.7989 19.1479 10.1494Z" fill="black"/>
</g>
</svg>
