<svg width="18" height="23" viewBox="0 0 18 23" fill="none" xmlns="http://www.w3.org/2000/svg">
<path fill-rule="evenodd" clip-rule="evenodd" d="M1.62537 6.85387C2.25561 6.95541 3.31707 6.88771 4.41171 5.90618C4.94244 5.39848 5.53951 5.50002 5.83805 5.56771C6.30244 5.7031 6.60098 6.00771 6.66732 6.24464C7.0322 7.63233 6.43512 8.10618 5.6722 8.71541C5.00878 9.2231 4.04683 10.0354 4.71024 11.4569C5.07512 12.2016 5.17463 12.7431 5.04195 13.0816C4.90927 13.3523 4.57756 13.6231 3.94732 13.86C2.35512 12.7769 1.32683 10.9154 1.32683 8.81695C1.32683 8.10618 1.42634 7.4631 1.62537 6.85387ZM7.29756 2.69079C8.39219 2.69079 9.38732 2.99541 10.2829 3.5031C9.65268 3.90925 9.2878 4.55233 9.2878 5.39848C9.2878 6.5831 9.78537 7.56464 10.2166 8.3431C10.4488 8.81694 10.7473 9.35848 10.681 9.56156C10.3493 10.4754 10.3824 11.3554 10.7805 11.9646C10.9795 12.2354 11.3112 12.54 11.8751 12.7093C10.7805 14.0293 9.15512 14.8754 7.33073 14.8754C6.70049 14.8754 6.07024 14.7739 5.47317 14.5708C5.80488 14.3339 6.10341 13.9954 6.30244 13.5893C6.60098 12.8446 6.46829 11.9985 5.93756 10.8477C5.73854 10.4754 5.77171 10.3739 6.50146 9.76464C7.33073 9.12156 8.55805 8.14002 7.96098 5.87233C7.76195 5.12771 7.09854 4.51848 6.2361 4.24771C5.27415 3.9431 4.31219 4.18002 3.54927 4.85694C3.08488 5.29694 2.62049 5.43233 2.28878 5.46618C3.31707 3.84156 5.17463 2.69079 7.29756 2.69079ZM13.2683 8.7831C13.2683 9.76464 13.0361 10.6785 12.638 11.4908C12.3395 11.4908 12.0078 11.4231 11.842 11.1862C11.6761 10.9493 11.7093 10.5093 11.8751 10.0354C12.1737 9.25694 11.7756 8.47848 11.3444 7.70002C10.9795 7.0231 10.5815 6.24464 10.5815 5.39848C10.5815 4.99233 10.7473 4.75541 11.079 4.58618C11.2117 4.51848 11.3112 4.48464 11.4439 4.45079C12.5717 5.56771 13.2683 7.09079 13.2683 8.7831ZM7.29756 16.2293C11.3112 16.2293 14.5951 12.8785 14.5951 8.7831C14.5951 4.68771 11.3112 1.33694 7.29756 1.33694C3.2839 1.33694 0 4.68771 0 8.7831C0 12.8785 3.2839 16.2293 7.29756 16.2293Z" fill="black"/>
<mask id="mask0_0_1911" style="mask-type:alpha" maskUnits="userSpaceOnUse" x="0" y="0" width="17" height="22">
<path fill-rule="evenodd" clip-rule="evenodd" d="M0.364878 21.9831H16.9171V11.0444V0.10577H0.364878V21.9831H0.364878Z" fill="white"/>
</mask>
<g mask="url(#mask0_0_1911)">
<path fill-rule="evenodd" clip-rule="evenodd" d="M16.9171 8.78308C16.9171 5.19539 14.9932 1.91232 11.9415 0.186161C11.6098 0.0169307 11.2117 0.118469 11.0459 0.456931C10.88 0.795392 10.9795 1.20155 11.3112 1.37078C13.9649 2.86001 15.6234 5.70308 15.6234 8.78308C15.6234 13.4539 11.9083 17.2446 7.33073 17.2446C5.14146 17.2446 3.05171 16.3646 1.49268 14.8077C1.22732 14.5369 0.796097 14.5369 0.563902 14.8077C0.298536 15.0785 0.298536 15.5185 0.563902 15.7554C2.22244 17.4139 4.37854 18.3954 6.66732 18.5646V20.6292H4.67707C4.31219 20.6292 4.01366 20.9339 4.01366 21.3062C4.01366 21.6785 4.31219 21.9831 4.67707 21.9831H10.0176C10.3824 21.9831 10.681 21.6785 10.681 21.3062C10.681 20.9339 10.3824 20.6292 10.0176 20.6292H7.99415V18.5646C12.9698 18.2262 16.9171 13.9954 16.9171 8.78308Z" fill="black"/>
</g>
</svg>
